<svg xmlns="http://www.w3.org/2000/svg" width="512" height="512" viewBox="0 0 512 512">
  <defs>
    <linearGradient id="background" x1="24" y1="18" x2="486" y2="498" gradientUnits="userSpaceOnUse">
      <stop stop-color="#0e2840"/>
      <stop offset=".48" stop-color="#061525"/>
      <stop offset="1" stop-color="#020711"/>
    </linearGradient>
    <linearGradient id="badge" x1="116" y1="104" x2="409" y2="420" gradientUnits="userSpaceOnUse">
      <stop stop-color="#72f8e9"/>
      <stop offset=".52" stop-color="#52aef5"/>
      <stop offset="1" stop-color="#8162ff"/>
    </linearGradient>
    <radialGradient id="glow" cx="0" cy="0" r="1" gradientTransform="translate(398 104) rotate(132) scale(258)">
      <stop stop-color="#50eadc" stop-opacity=".38"/>
      <stop offset="1" stop-color="#50eadc" stop-opacity="0"/>
    </radialGradient>
    <filter id="shadow" x="42" y="46" width="428" height="438" color-interpolation-filters="sRGB">
      <feDropShadow dx="0" dy="28" stdDeviation="25" flood-color="#00040a" flood-opacity=".52"/>
    </filter>
  </defs>
  <rect width="512" height="512" fill="url(#background)"/>
  <circle cx="398" cy="104" r="258" fill="url(#glow)"/>
  <g opacity=".12" stroke="#ffffff">
    <path d="M0 96H512M0 176H512M0 256H512M0 336H512M0 416H512"/>
    <path d="M96 0V512M176 0V512M256 0V512M336 0V512M416 0V512"/>
  </g>
  <g>
    <rect x="78" y="72" width="356" height="356" rx="112" fill="url(#badge)"/>
    <rect x="80" y="74" width="352" height="352" rx="110" fill="none" stroke="#ffffff" stroke-opacity=".42" stroke-width="4"/>
    <path d="M102 184C157 108 272 78 381 120" fill="none" stroke="#ffffff" stroke-opacity=".23" stroke-width="18" stroke-linecap="round"/>
  </g>
  <text x="256" y="298" text-anchor="middle" fill="#031018" font-family="DejaVu Sans, Arial, sans-serif" font-size="152" font-weight="900" letter-spacing="-14">CL</text>
  <rect x="179" y="335" width="154" height="4" rx="2" fill="#031018" fill-opacity=".56"/>
  <text x="256" y="373" text-anchor="middle" fill="#031018" font-family="DejaVu Sans, Arial, sans-serif" font-size="22" font-weight="800" letter-spacing="7">LEAGUE</text>
</svg>
